<svg width="36" height="36" viewBox="0 0 36 36" fill="none" xmlns="http://www.w3.org/2000/svg">
<g id="Icon/Solid/document-report">
<path id="Icon" fill-rule="evenodd" clip-rule="evenodd" d="M10.8 3.6C8.81177 3.6 7.2 5.21178 7.2 7.2V28.8C7.2 30.7882 8.81177 32.4 10.8 32.4H25.2C27.1882 32.4 28.8 30.7882 28.8 28.8V13.3456C28.8 12.3908 28.4207 11.4751 27.7456 10.8L21.6 4.65441C20.9249 3.97928 20.0092 3.6 19.0544 3.6H10.8ZM14.4 21.6C14.4 20.6059 13.5941 19.8 12.6 19.8C11.6059 19.8 10.8 20.6059 10.8 21.6V27C10.8 27.9941 11.6059 28.8 12.6 28.8C13.5941 28.8 14.4 27.9941 14.4 27V21.6ZM18 16.2C18.9941 16.2 19.8 17.0059 19.8 18V27C19.8 27.9941 18.9941 28.8 18 28.8C17.0059 28.8 16.2 27.9941 16.2 27V18C16.2 17.0059 17.0059 16.2 18 16.2ZM25.2 14.4C25.2 13.4059 24.3941 12.6 23.4 12.6C22.4059 12.6 21.6 13.4059 21.6 14.4V27C21.6 27.9941 22.4059 28.8 23.4 28.8C24.3941 28.8 25.2 27.9941 25.2 27V14.4Z" fill="#F68002"/>
</g>
</svg>
