<?xml version="1.0" encoding="UTF-8"?>
<svg id="Layer_2" data-name="Layer 2" xmlns="http://www.w3.org/2000/svg" viewBox="0 0 434.72 434.72">
  <defs>
    <style>
      .cls-1 {
        fill: #003049;
      }

      .cls-1, .cls-2, .cls-3 {
        stroke-width: 0px;
      }

      .cls-2 {
        fill: #d62828;
      }

      .cls-3 {
        fill: #fff;
      }
    </style>
  </defs>
  <g id="Circle_only" data-name="Circle only">
    <g id="Logo">
      <circle class="cls-3" cx="217.36" cy="217.36" r="217.36"/>
      <polygon class="cls-3" points="365.53 117.52 382.76 114.24 395.42 117.52 402.11 130.54 404.92 144.81 392.06 157.12 382.76 157.12 365.53 138.69 365.53 117.52"/>
      <path class="cls-1" d="m217.36,8.35C101.92,8.35,8.35,101.92,8.35,217.36s93.58,209.01,209.01,209.01,209.01-93.58,209.01-209.01S332.79,8.35,217.36,8.35Zm173.52,141.66l-172.82,111.12c-2.87,1.84-6.18,2.8-9.53,2.8-1.58,0-3.17-.21-4.72-.65-4.83-1.35-8.87-4.71-11.08-9.22l-20.95-42.81c-2.21-4.51-2.38-9.76-.48-14.41,1.9-4.65,5.71-8.27,10.44-9.94l193.77-68.31c8.7-3.07,17.61.58,21.67,8.86,4.06,8.29,1.47,17.56-6.29,22.55Z"/>
      <circle class="cls-3" cx="217.36" cy="217.36" r="184.75"/>
      <path class="cls-2" d="m377.82,125.17l-193.77,68.31c-6,2.11-8.81,8.99-6.01,14.7l20.95,42.81c2.8,5.71,9.95,7.71,15.3,4.27l172.82-111.12c10.61-6.82,2.61-23.17-9.29-18.97Z"/>
      <circle class="cls-1" cx="217.36" cy="217.36" r="45.02"/>
      <path class="cls-1" d="m214.11,414.61c28.09,0,54.8-5.9,78.97-16.5-11.38-26.04-37.36-44.25-67.59-44.25-6.9,0-13.58.95-19.91,2.71-8.3-16.34-22.77-29-40.36-34.89,6.32-10.27,9.97-22.36,9.97-35.3,0-37.27-30.21-67.48-67.48-67.48-16.17,0-31.02,5.69-42.65,15.19-12.59-13.09-29.06-22.42-47.55-26.15-.16,3.25-.24,6.52-.24,9.82,0,108.71,88.13,196.84,196.84,196.84Z"/>
    </g>
  </g>
</svg>