<svg width="46" height="46" viewBox="0 0 46 46" fill="none" xmlns="http://www.w3.org/2000/svg">
<g id="Icon/Outline/globe">
<path id="Icon" d="M5.85528 21.0833H9.58333C11.7004 21.0833 13.4167 22.7996 13.4167 24.9167V26.8333C13.4167 28.9504 15.1329 30.6667 17.25 30.6667C19.3671 30.6667 21.0833 32.3829 21.0833 34.5V40.1447M15.3333 7.54308V10.5417C15.3333 13.188 17.4786 15.3333 20.125 15.3333H21.0833C23.2004 15.3333 24.9167 17.0496 24.9167 19.1667C24.9167 21.2838 26.6329 23 28.75 23C30.8671 23 32.5833 21.2838 32.5833 19.1667C32.5833 17.0496 34.2996 15.3333 36.4167 15.3333L38.4569 15.3333M28.75 39.2684V34.5C28.75 32.3829 30.4662 30.6667 32.5833 30.6667H38.4569M40.25 23C40.25 32.5269 32.5269 40.25 23 40.25C13.4731 40.25 5.75 32.5269 5.75 23C5.75 13.4731 13.4731 5.75 23 5.75C32.5269 5.75 40.25 13.4731 40.25 23Z" stroke="#D62828" stroke-width="2" stroke-linecap="round" stroke-linejoin="round"/>
</g>
</svg>
