<svg width="15" height="18" viewBox="0 0 15 18" fill="none" xmlns="http://www.w3.org/2000/svg">
<path d="M11.7857 5.35714V4.28571C11.7857 1.92254 9.86314 0 7.5 0C5.13683 0 3.21429 1.92254 3.21429 4.28571V5.35714H0V14.4643C0 15.9436 1.19923 17.1429 2.67857 17.1429H12.3214C13.8008 17.1429 15 15.9436 15 14.4643V5.35714H11.7857ZM5.35714 4.28571C5.35714 3.10413 6.31842 2.14286 7.5 2.14286C8.68158 2.14286 9.64286 3.10413 9.64286 4.28571V5.35714H5.35714V4.28571ZM10.7143 8.30357C10.2705 8.30357 9.91071 7.94381 9.91071 7.5C9.91071 7.05619 10.2705 6.69643 10.7143 6.69643C11.1581 6.69643 11.5179 7.05619 11.5179 7.5C11.5179 7.94381 11.1581 8.30357 10.7143 8.30357ZM4.28571 8.30357C3.84191 8.30357 3.48214 7.94381 3.48214 7.5C3.48214 7.05619 3.84191 6.69643 4.28571 6.69643C4.72952 6.69643 5.08929 7.05619 5.08929 7.5C5.08929 7.94381 4.72952 8.30357 4.28571 8.30357Z" fill="#6F6C8F"/>
</svg>
