<svg width="39" height="39" viewBox="0 0 39 39" fill="none" xmlns="http://www.w3.org/2000/svg">
<path fill-rule="evenodd" clip-rule="evenodd" d="M7.7999 9.7501C5.64599 9.7501 3.8999 11.4962 3.8999 13.6501V29.2501C3.8999 31.404 5.64599 33.1501 7.7999 33.1501H31.1999C33.3538 33.1501 35.0999 31.404 35.0999 29.2501V13.6501C35.0999 11.4962 33.3538 9.7501 31.1999 9.7501H28.1076C27.5904 9.7501 27.0945 9.54465 26.7288 9.17896L24.5422 6.99238C23.8108 6.26099 22.8188 5.8501 21.7845 5.8501H17.2153C16.181 5.8501 15.189 6.26099 14.4576 6.99238L12.271 9.17896C11.9053 9.54465 11.4094 9.7501 10.8922 9.7501H7.7999ZM19.4999 27.3001C22.7308 27.3001 25.3499 24.681 25.3499 21.4501C25.3499 18.2192 22.7308 15.6001 19.4999 15.6001C16.269 15.6001 13.6499 18.2192 13.6499 21.4501C13.6499 24.681 16.269 27.3001 19.4999 27.3001Z" fill="#D62828"/>
</svg>
