<svg width="17" height="13" viewBox="0 0 17 13" fill="none" xmlns="http://www.w3.org/2000/svg">
<path d="M16.6011 3.71876H14.6133L14.0608 2.3375C13.493 0.917403 12.138 0 10.6083 0H6.39149C4.86215 0 3.5068 0.917403 2.93869 2.3375L2.38619 3.71876H0.398649C0.139333 3.71876 -0.0509216 3.96247 0.0121644 4.21381L0.211383 5.01069C0.255544 5.188 0.414919 5.31251 0.597868 5.31251H1.26426C0.818338 5.70198 0.53113 6.26809 0.53113 6.90626V8.50001C0.53113 9.03525 0.735661 9.51835 1.06238 9.89222V11.6875C1.06238 12.2742 1.53818 12.75 2.12488 12.75H3.18738C3.77408 12.75 4.24989 12.2742 4.24989 11.6875V10.625H12.7499V11.6875C12.7499 12.2742 13.2257 12.75 13.8124 12.75H14.8749C15.4616 12.75 15.9374 12.2742 15.9374 11.6875V9.89222C16.2641 9.51868 16.4687 9.03558 16.4687 8.50001V6.90626C16.4687 6.26809 16.1814 5.70198 15.7359 5.31251H16.4022C16.5852 5.31251 16.7446 5.188 16.7887 5.01069L16.9879 4.21381C17.0507 3.96247 16.8604 3.71876 16.6011 3.71876ZM4.91162 3.12674C5.15368 2.52178 5.73971 2.125 6.39149 2.125H10.6083C11.2601 2.125 11.8461 2.52178 12.0882 3.12674L12.7499 4.78126H4.24989L4.91162 3.12674ZM3.18738 8.49337C2.54988 8.49337 2.12488 8.0697 2.12488 7.43419C2.12488 6.79868 2.54988 6.37501 3.18738 6.37501C3.82488 6.37501 4.78114 7.32827 4.78114 7.96378C4.78114 8.59929 3.82488 8.49337 3.18738 8.49337ZM13.8124 8.49337C13.1749 8.49337 12.2186 8.59929 12.2186 7.96378C12.2186 7.32827 13.1749 6.37501 13.8124 6.37501C14.4499 6.37501 14.8749 6.79868 14.8749 7.43419C14.8749 8.0697 14.4499 8.49337 13.8124 8.49337Z" fill="#6F6C8F"/>
</svg>
