<svg width="25" height="25" viewBox="0 0 25 25" fill="none" xmlns="http://www.w3.org/2000/svg">
<path d="M11.1848 12.5001L16.1348 17.4501C16.2303 17.5423 16.3065 17.6526 16.3589 17.7747C16.4113 17.8967 16.4389 18.0279 16.44 18.1607C16.4412 18.2934 16.4159 18.4251 16.3656 18.548C16.3153 18.6709 16.2411 18.7826 16.1472 18.8765C16.0533 18.9703 15.9416 19.0446 15.8187 19.0949C15.6958 19.1452 15.5642 19.1705 15.4314 19.1693C15.2986 19.1682 15.1674 19.1406 15.0454 19.0882C14.9234 19.0358 14.813 18.9596 14.7208 18.8641L9.06378 13.2071C8.87631 13.0195 8.771 12.7652 8.771 12.5001C8.771 12.2349 8.87631 11.9806 9.06378 11.7931L14.7208 6.13606C14.9094 5.9539 15.162 5.85311 15.4242 5.85538C15.6864 5.85766 15.9372 5.96283 16.1226 6.14824C16.308 6.33365 16.4132 6.58446 16.4155 6.84666C16.4177 7.10885 16.3169 7.36146 16.1348 7.55006L11.1848 12.5001Z" fill="#94A3B8"/>
</svg>
