<svg width="25" height="25" viewBox="0 0 25 25" fill="none" xmlns="http://www.w3.org/2000/svg">
<path d="M13.7418 12.571L8.79179 7.62098C8.60963 7.43238 8.50884 7.17978 8.51112 6.91758C8.51339 6.65538 8.61856 6.40457 8.80397 6.21916C8.98938 6.03375 9.24019 5.92859 9.50239 5.92631C9.76459 5.92403 10.0172 6.02482 10.2058 6.20698L15.8628 11.864C16.0503 12.0515 16.1556 12.3058 16.1556 12.571C16.1556 12.8361 16.0503 13.0905 15.8628 13.278L10.2058 18.935C10.0172 19.1171 9.76459 19.2179 9.50239 19.2157C9.24019 19.2134 8.98938 19.1082 8.80397 18.9228C8.61856 18.7374 8.51339 18.4866 8.51112 18.2244C8.50884 17.9622 8.60963 17.7096 8.79179 17.521L13.7418 12.571Z" fill="#475569"/>
</svg>
