<svg width="36" height="36" viewBox="0 0 36 36" fill="none" xmlns="http://www.w3.org/2000/svg">
<g id="Icon/Solid/clipboard-check">
<g id="Icon">
<path d="M16.2 3.59998C15.2059 3.59998 14.4 4.40586 14.4 5.39998C14.4 6.39409 15.2059 7.19998 16.2 7.19998H19.8C20.7941 7.19998 21.6 6.39409 21.6 5.39998C21.6 4.40586 20.7941 3.59998 19.8 3.59998H16.2Z" fill="#F68002"/>
<path fill-rule="evenodd" clip-rule="evenodd" d="M7.2 8.99998C7.2 7.01175 8.81177 5.39998 10.8 5.39998C10.8 8.38231 13.2177 10.8 16.2 10.8H19.8C22.7823 10.8 25.2 8.38231 25.2 5.39998C27.1882 5.39998 28.8 7.01175 28.8 8.99998V28.8C28.8 30.7882 27.1882 32.4 25.2 32.4H10.8C8.81178 32.4 7.2 30.7882 7.2 28.8V8.99998ZM24.6728 19.2728C25.3757 18.5698 25.3757 17.4301 24.6728 16.7272C23.9698 16.0242 22.8301 16.0242 22.1272 16.7272L16.2 22.6544L13.8728 20.3272C13.1698 19.6242 12.0302 19.6242 11.3272 20.3272C10.6243 21.0301 10.6243 22.1698 11.3272 22.8728L14.9272 26.4728C15.6301 27.1757 16.7698 27.1757 17.4728 26.4728L24.6728 19.2728Z" fill="#F68002"/>
</g>
</g>
</svg>
