<svg width="30" height="30" viewBox="0 0 30 30" fill="none" xmlns="http://www.w3.org/2000/svg">
<path d="M4.5 18V22.5C4.5 24.9853 9.20101 27 15 27C20.799 27 25.5 24.9853 25.5 22.5V18C25.5 20.4853 20.799 22.5 15 22.5C9.20101 22.5 4.5 20.4853 4.5 18Z" fill="white"/>
<path d="M4.5 10.5V15C4.5 17.4853 9.20101 19.5 15 19.5C20.799 19.5 25.5 17.4853 25.5 15V10.5C25.5 12.9853 20.799 15 15 15C9.20101 15 4.5 12.9853 4.5 10.5Z" fill="white"/>
<path d="M25.5 7.5C25.5 9.98528 20.799 12 15 12C9.20101 12 4.5 9.98528 4.5 7.5C4.5 5.01472 9.20101 3 15 3C20.799 3 25.5 5.01472 25.5 7.5Z" fill="white"/>
</svg>
