<svg width="46" height="46" viewBox="0 0 46 46" fill="none" xmlns="http://www.w3.org/2000/svg">
<path d="M5.75 23L9.58333 19.1667M9.58333 19.1667L23 5.75L36.4167 19.1667M9.58333 19.1667V38.3333C9.58333 39.3919 10.4415 40.25 11.5 40.25H17.25M36.4167 19.1667L40.25 23M36.4167 19.1667V38.3333C36.4167 39.3919 35.5585 40.25 34.5 40.25H28.75M17.25 40.25C18.3085 40.25 19.1667 39.3919 19.1667 38.3333V30.6667C19.1667 29.6081 20.0248 28.75 21.0833 28.75H24.9167C25.9752 28.75 26.8333 29.6081 26.8333 30.6667V38.3333C26.8333 39.3919 27.6915 40.25 28.75 40.25M17.25 40.25H28.75" stroke="#D62828" stroke-width="2" stroke-linecap="round" stroke-linejoin="round"/>
</svg>
