<svg width="568" height="497" viewBox="0 0 568 497" fill="none" xmlns="http://www.w3.org/2000/svg">
<path d="M550.38 141.12V110.86H537.35V144.9L485.55 158.89V138.01L455.9 158.89H453.2L446.3 73.15H434.35L427.45 158.89H422.18L412.46 38.07H395.62L386.47 151.81L374.25 0H352.11L339.32 158.89H336.68L329.78 73.15H317.83L310.93 158.89L307.37 212.34L561.1 212.09V138.01L550.38 141.12Z" fill="#969696"/>
<mask id="mask0_0_3" style="mask-type:luminance" maskUnits="userSpaceOnUse" x="310" y="0" width="180" height="159">
<path d="M489.09 158.89H485.55V138.01L455.9 158.89H453.2L446.3 73.15H434.35L427.45 158.89H422.18L412.46 38.07H395.62L386.47 151.81L374.25 0H352.11L339.32 158.89H336.68L329.78 73.15H317.83L310.93 158.89H489.09Z" fill="white"/>
</mask>
<g mask="url(#mask0_0_3)">
<path d="M339.67 15.99C339.67 15.99 355.49 26.19 387.31 15.99" stroke="#DAD6BD" stroke-width="3" stroke-miterlimit="10"/>
<path d="M339.67 36.12C339.67 36.12 355.49 46.32 387.31 36.12" stroke="#DAD6BD" stroke-width="3" stroke-miterlimit="10"/>
<path d="M339.67 56.25C339.67 56.25 355.49 66.45 387.31 56.25" stroke="#DAD6BD" stroke-width="3" stroke-miterlimit="10"/>
<path d="M387.88 50.61C387.88 50.61 399.41 60.81 422.6 50.61" stroke="#DAD6BD" stroke-width="3" stroke-miterlimit="10"/>
<path d="M387.88 70.75C387.88 70.75 399.41 80.95 422.6 70.75" stroke="#DAD6BD" stroke-width="3" stroke-miterlimit="10"/>
<path d="M387.88 90.88C387.88 90.88 399.41 101.08 422.6 90.88" stroke="#DAD6BD" stroke-width="3" stroke-miterlimit="10"/>
<path d="M308.4 81.79C308.4 81.79 319.21 88.79 340.95 81.79" stroke="#DAD6BD" stroke-width="3" stroke-miterlimit="10"/>
<path d="M308.4 95.54C308.4 95.54 319.21 102.54 340.95 95.54" stroke="#DAD6BD" stroke-width="3" stroke-miterlimit="10"/>
<path d="M308.4 109.29C308.4 109.29 319.21 116.29 340.95 109.29" stroke="#DAD6BD" stroke-width="3" stroke-miterlimit="10"/>
<path d="M423.51 81.79C423.51 81.79 434.32 88.79 456.06 81.79" stroke="#DAD6BD" stroke-width="3" stroke-miterlimit="10"/>
<path d="M423.51 95.54C423.51 95.54 434.32 102.54 456.06 95.54" stroke="#DAD6BD" stroke-width="3" stroke-miterlimit="10"/>
<path d="M423.51 109.29C423.51 109.29 434.32 116.29 456.06 109.29" stroke="#DAD6BD" stroke-width="3" stroke-miterlimit="10"/>
</g>
<path d="M547.49 181.65H539.19V189.95H547.49V181.65Z" fill="#3B455E"/>
<path d="M527.86 181.65H519.56V189.95H527.86V181.65Z" fill="#3B455E"/>
<path d="M508.23 181.65H499.93V189.95H508.23V181.65Z" fill="#3B455E"/>
<path d="M488.6 181.65H480.3V189.95H488.6V181.65Z" fill="#3B455E"/>
<path d="M468.97 181.65H460.67V189.95H468.97V181.65Z" fill="#3B455E"/>
<path d="M255.26 207.84L309.6 207.54C309.6 207.54 275.19 196.77 273.35 94.81H222.65C220.84 196.81 186.43 207.54 186.43 207.54L240.77 207.84V207.92H248.01H255.26V207.84Z" fill="#A8A8A8"/>
<path d="M257.71 132.43C254.708 130.916 251.392 130.128 248.03 130.128C244.668 130.128 241.352 130.916 238.35 132.43C238.212 132.5 238.089 132.598 237.99 132.717C237.89 132.836 237.816 132.975 237.772 133.124C237.728 133.273 237.715 133.429 237.734 133.583C237.752 133.737 237.802 133.886 237.88 134.02L247.05 149.92C247.148 150.099 247.293 150.249 247.469 150.353C247.645 150.458 247.846 150.513 248.05 150.513C248.255 150.513 248.455 150.458 248.631 150.353C248.807 150.249 248.952 150.099 249.05 149.92L258.24 134.03C258.316 133.891 258.363 133.738 258.377 133.581C258.392 133.423 258.374 133.265 258.324 133.114C258.274 132.964 258.194 132.826 258.088 132.708C257.983 132.59 257.854 132.496 257.71 132.43Z" fill="#EAE2B7"/>
<path d="M270.72 156.69H252.35C252.149 156.688 251.951 156.739 251.776 156.838C251.6 156.937 251.455 157.081 251.353 157.254C251.252 157.428 251.198 157.626 251.197 157.827C251.197 158.028 251.249 158.226 251.35 158.4L260.52 174.3C260.598 174.434 260.702 174.55 260.826 174.642C260.95 174.735 261.092 174.801 261.242 174.837C261.392 174.874 261.548 174.879 261.701 174.854C261.854 174.829 262 174.773 262.13 174.69C264.949 172.847 267.295 170.367 268.98 167.451C270.665 164.534 271.641 161.263 271.83 157.9C271.839 157.747 271.818 157.594 271.767 157.449C271.716 157.305 271.636 157.172 271.532 157.059C271.429 156.946 271.303 156.855 271.164 156.792C271.024 156.728 270.873 156.694 270.72 156.69Z" fill="#EAE2B7"/>
<path d="M224.17 158.23C224.355 161.59 225.326 164.86 227.005 167.777C228.685 170.693 231.026 173.174 233.84 175.02C233.97 175.105 234.116 175.163 234.27 175.19C234.423 175.217 234.58 175.212 234.731 175.177C234.883 175.141 235.025 175.075 235.151 174.983C235.276 174.891 235.381 174.774 235.46 174.64L244.65 158.74C244.751 158.566 244.803 158.368 244.803 158.167C244.802 157.966 244.748 157.768 244.647 157.594C244.545 157.421 244.4 157.277 244.224 157.178C244.049 157.079 243.851 157.028 243.65 157.03H225.35C225.192 157.024 225.034 157.051 224.887 157.11C224.74 157.169 224.607 157.257 224.496 157.37C224.385 157.483 224.298 157.618 224.242 157.766C224.186 157.914 224.162 158.072 224.17 158.23Z" fill="#EAE2B7"/>
<path d="M248.01 157.03C249.308 157.03 250.36 155.978 250.36 154.68C250.36 153.382 249.308 152.33 248.01 152.33C246.712 152.33 245.66 153.382 245.66 154.68C245.66 155.978 246.712 157.03 248.01 157.03Z" fill="#EAE2B7"/>
<path d="M280.27 90.06H216.96C215.049 90.06 213.5 91.6091 213.5 93.52V96.26C213.5 98.1709 215.049 99.72 216.96 99.72H280.27C282.181 99.72 283.73 98.1709 283.73 96.26V93.52C283.73 91.6091 282.181 90.06 280.27 90.06Z" fill="#969696"/>
<path d="M313.24 202.38H184C182.089 202.38 180.54 203.929 180.54 205.84V208.58C180.54 210.491 182.089 212.04 184 212.04H313.24C315.151 212.04 316.7 210.491 316.7 208.58V205.84C316.7 203.929 315.151 202.38 313.24 202.38Z" fill="#969696"/>
<path d="M287.366 196.095L274.989 195.517L274.78 200.003L287.157 200.58L287.366 196.095Z" fill="#A8A8A8"/>
<path d="M417.916 186.4L295.058 185.671L294.942 205.151L417.8 205.88L417.916 186.4Z" fill="#2D314A"/>
<path d="M409.728 213.498C414.9 210.206 416.548 203.542 413.41 198.612C410.273 193.683 403.537 192.356 398.365 195.648C393.194 198.94 391.545 205.605 394.683 210.534C397.821 215.463 404.557 216.79 409.728 213.498Z" fill="#404452"/>
<path d="M318.062 212.952C323.233 209.66 324.882 202.995 321.744 198.066C318.606 193.137 311.87 191.809 306.699 195.101C301.527 198.393 299.879 205.058 303.017 209.987C306.154 214.916 312.89 216.244 318.062 212.952Z" fill="#404452"/>
<path d="M400.35 208.72C401.487 209.619 402.928 210.043 404.371 209.904C405.814 209.764 407.147 209.071 408.09 207.97C408.57 207.453 408.942 206.844 409.181 206.18C409.421 205.516 409.524 204.811 409.485 204.106C409.446 203.401 409.265 202.711 408.953 202.078C408.641 201.445 408.205 200.881 407.67 200.42C406.534 199.52 405.094 199.094 403.651 199.232C402.208 199.37 400.875 200.061 399.93 201.16C399.449 201.678 399.078 202.288 398.838 202.953C398.598 203.617 398.495 204.324 398.534 205.029C398.573 205.735 398.754 206.425 399.066 207.059C399.378 207.694 399.815 208.258 400.35 208.72Z" fill="#969696"/>
<path d="M308.72 208.17C309.856 209.07 311.296 209.496 312.739 209.358C314.182 209.22 315.515 208.529 316.46 207.43C316.941 206.912 317.312 206.302 317.552 205.637C317.792 204.973 317.895 204.266 317.856 203.561C317.817 202.855 317.636 202.165 317.324 201.531C317.012 200.896 316.575 200.332 316.04 199.87C314.904 198.97 313.464 198.544 312.021 198.682C310.578 198.82 309.245 199.511 308.3 200.61C307.819 201.128 307.448 201.738 307.208 202.403C306.968 203.067 306.865 203.774 306.904 204.479C306.943 205.185 307.124 205.875 307.436 206.509C307.748 207.144 308.185 207.708 308.72 208.17Z" fill="#969696"/>
<path opacity="0.2" d="M353.03 180.66L388.44 181.45C388.44 181.3 388.44 181.17 388.44 181.08C386.74 179.73 374.78 170.88 351.44 168.33L353.03 180.66Z" fill="#DFDFDF"/>
<path opacity="0.2" d="M348.49 168.06C333.93 166.93 322.19 171.61 317.73 173.4C317.465 173.491 317.236 173.662 317.073 173.89C316.91 174.117 316.821 174.39 316.82 174.67L318.65 179.84L318.74 179.9L348.74 180.57L348.49 168.06Z" fill="#DFDFDF"/>
<path d="M427.98 191.43C427.72 189.32 426.04 187.74 424.28 186.63C420.04 183.95 414.34 179.71 392.1 178.12C392.1 178.12 368.42 164.12 347.16 163.97C325.9 163.82 317.65 167.44 298.76 175.37C298.76 175.37 289.76 174.58 287.82 176.37C285.88 178.16 279.75 195.31 279.66 196.37C279.57 197.43 279.43 202.17 282.66 203.37C286.87 205 297.12 205.94 297.12 205.94H298.87C298.663 204.089 298.85 202.215 299.419 200.442C299.988 198.668 300.925 197.035 302.17 195.65C307.06 190.11 315.44 189.3 320.89 193.86C322.678 195.362 324.003 197.341 324.713 199.565C325.422 201.79 325.487 204.17 324.9 206.43L391.01 207.43C390.657 205.456 390.759 203.427 391.308 201.498C391.857 199.57 392.84 197.792 394.18 196.3C399.07 190.76 407.45 189.95 412.9 194.51C414.788 196.097 416.16 198.211 416.843 200.582C417.525 202.952 417.485 205.472 416.73 207.82H417.17C417.17 207.82 423.24 207.03 426.26 205.29C429.28 203.55 428.62 196.62 427.98 191.43ZM318.74 179.9L318.65 179.84L316.82 174.67C316.821 174.39 316.91 174.117 317.073 173.89C317.236 173.662 317.465 173.491 317.73 173.4C322.19 171.61 333.93 166.93 348.49 168.06L348.77 180.57L318.74 179.9ZM353.03 180.66L351.43 168.33C374.74 170.88 386.7 179.73 388.43 181.08C388.43 181.17 388.43 181.3 388.43 181.45L353.03 180.66Z" fill="#D62828"/>
<path d="M293.66 179.76L285.91 179.71C285.24 181.18 284.49 182.97 283.75 184.83L292.4 184.88C292.662 184.882 292.921 184.829 293.16 184.724C293.4 184.619 293.615 184.464 293.79 184.27L295.06 182.83C295.313 182.548 295.472 182.194 295.513 181.817C295.554 181.44 295.476 181.06 295.29 180.73C295.126 180.44 294.89 180.199 294.604 180.028C294.318 179.858 293.993 179.766 293.66 179.76Z" fill="white"/>
<path d="M427.98 191.43C427.72 189.33 426.04 187.75 424.28 186.64L424.02 186.47H420.19C419.838 186.459 419.49 186.554 419.193 186.744C418.896 186.933 418.663 187.208 418.524 187.532C418.386 187.857 418.349 188.215 418.418 188.561C418.486 188.907 418.658 189.223 418.91 189.47L420.86 191.56C421.029 191.738 421.232 191.881 421.457 191.979C421.682 192.077 421.924 192.128 422.17 192.13H428.06C428.04 191.86 428.01 191.64 427.98 191.43Z" fill="white"/>
<path d="M76.26 212.02H132.04V170.99H76.26V212.02Z" fill="#AB7F65"/>
<mask id="mask1_0_3" style="mask-type:luminance" maskUnits="userSpaceOnUse" x="76" y="170" width="57" height="43">
<path d="M76.26 212.02H132.04V170.99H76.26V212.02Z" fill="white"/>
</mask>
<g mask="url(#mask1_0_3)">
<path d="M76.04 200.74C75.4 217.19 75.3 235.66 78.38 235.99C80.48 236.21 83.28 227.91 84.68 223.75C94.88 193.4 93.13 160.06 89 159.75C85.85 159.52 81.11 178.54 79.87 193.21C78.82 205.68 80 218.61 81.39 218.66C82.3 218.66 83.78 213.16 86.27 187.92" stroke="#8C6254" stroke-width="0.75" stroke-miterlimit="10"/>
<path d="M134.07 197.63C134.99 184.63 135.41 170.07 132.33 169.77C130.23 169.57 127.33 176.1 125.83 179.37C115.11 203.21 116.29 229.55 120.41 229.83C123.56 230.05 128.63 215.08 130.11 203.52C131.37 193.68 130.41 183.46 129.03 183.41C128.12 183.41 126.54 187.72 123.62 207.62" stroke="#8C6254" stroke-width="0.75" stroke-miterlimit="10"/>
<path d="M82.02 239.85C86.9 233.92 93.02 225.02 95.83 213.85C98.77 202.31 96.88 193.75 96 188.01C94.18 176.09 94 158.92 102.06 136.64" stroke="#8C6254" stroke-width="0.75" stroke-miterlimit="10"/>
<path d="M135.35 152.78C127.151 160.129 120.124 168.688 114.51 178.16C111.185 183.646 108.678 189.589 107.07 195.8C104.49 206.28 106.47 211.43 106.07 218.59C105.69 226.02 102.72 236.71 90.39 249.73" stroke="#8C6254" stroke-width="0.75" stroke-miterlimit="10"/>
<path d="M139.62 156.57C122.62 169.89 116.41 181.62 113.78 189.22C110.78 197.78 110.72 206.22 110.67 210C110.49 223.76 114.13 227.07 112.29 235.45C111.06 241.07 107.29 249.31 95.03 258.96" stroke="#8C6254" stroke-width="0.75" stroke-miterlimit="10"/>
<path d="M86.94 246.83C91.2738 242.165 94.6689 236.709 96.94 230.76C101.52 218.23 97.22 210.13 101.8 191.12C102.3 189.04 102.39 188.96 102.8 187.23C105.29 175.71 103.3 169.23 103.36 162.7C103.45 151.3 109.77 138.53 114.47 138.62C118.76 138.7 124.14 149.5 121.04 159.62C118.99 166.31 113.17 172.92 110.62 172.62C107.82 172.31 108.89 163.77 109.62 160.21C110.88 153.72 114.16 146.98 115.62 147.1C116.33 147.1 116.93 148.8 116.29 156.24" stroke="#8C6254" stroke-width="0.75" stroke-miterlimit="10"/>
</g>
<path d="M76.26 170.99C76.26 171.89 88.75 172.62 104.15 172.62C119.55 172.62 132.04 171.89 132.04 170.99C132.04 170.09 119.56 169.36 104.15 169.36C88.74 169.36 76.26 170.09 76.26 170.99Z" fill="#8C6254"/>
<g style="mix-blend-mode:multiply" opacity="0.64">
<path d="M101.64 169.48H85.37V212.01H101.64V169.48Z" fill="#A4B3DE"/>
</g>
<path d="M25.22 212.02H92.94V162.21H25.22V212.02Z" fill="#AB7F65"/>
<mask id="mask2_0_3" style="mask-type:luminance" maskUnits="userSpaceOnUse" x="25" y="162" width="68" height="51">
<path d="M25.22 212.02H92.94V162.21H25.22V212.02Z" fill="white"/>
</mask>
<g mask="url(#mask2_0_3)">
<path d="M24.95 198.33C24.18 218.33 24.05 240.72 27.8 241.12C30.35 241.39 33.74 231.31 35.44 226.26C47.82 189.42 45.7 148.95 40.69 148.58C36.87 148.31 31.11 171.4 29.61 189.21C28.33 204.35 29.77 220.05 31.45 220.1C32.55 220.1 34.35 213.42 37.38 182.79" stroke="#8C6254" stroke-width="0.75" stroke-miterlimit="10"/>
<path d="M95.41 194.55C96.52 178.8 97.03 161.09 93.29 160.73C90.74 160.49 87.18 168.41 85.39 172.38C72.39 201.32 73.82 233.3 78.82 233.64C82.64 233.91 88.82 215.74 90.6 201.7C92.13 189.76 90.96 177.35 89.28 177.28C88.18 177.28 86.28 182.52 82.72 206.67" stroke="#8C6254" stroke-width="0.75" stroke-miterlimit="10"/>
<path d="M32.21 245.81C38.14 238.61 45.53 227.81 48.98 214.22C52.55 200.22 50.25 189.81 49.19 182.84C46.98 168.38 46.82 147.53 56.54 120.49" stroke="#8C6254" stroke-width="0.75" stroke-miterlimit="10"/>
<path d="M96.9 140.1C83.9 152.1 76.29 162.8 71.61 170.91C67.589 177.577 64.5574 184.792 62.61 192.33C59.48 205.05 61.8901 211.33 61.4501 219.99C60.9901 228.99 57.39 241.99 42.45 257.8" stroke="#8C6254" stroke-width="0.75" stroke-miterlimit="10"/>
<path d="M102.15 144.7C81.55 160.87 73.96 175.11 70.77 184.34C67.18 194.73 67.05 204.93 66.99 209.57C66.78 226.27 71.19 230.29 68.99 240.47C67.49 247.29 62.92 257.3 47.99 269" stroke="#8C6254" stroke-width="0.75" stroke-miterlimit="10"/>
<path d="M38.18 254.27C45.36 246.27 48.68 239.44 50.39 234.77C55.95 219.55 50.72 209.72 56.29 186.65C56.9 184.13 57.01 184.03 57.46 181.93C60.46 167.93 58.07 160.1 58.14 152.14C58.26 138.3 65.92 122.81 71.63 122.91C76.84 123.01 83.37 136.12 79.63 148.41C77.14 156.52 70.08 164.55 66.97 164.21C63.58 163.84 64.87 153.47 65.71 149.15C67.24 141.27 71.22 133.09 73.02 133.23C73.88 133.3 74.62 135.3 73.84 144.32" stroke="#8C6254" stroke-width="0.75" stroke-miterlimit="10"/>
</g>
<path d="M59.08 164.19C77.7804 164.19 92.94 163.304 92.94 162.21C92.94 161.116 77.7804 160.23 59.08 160.23C40.3797 160.23 25.22 161.116 25.22 162.21C25.22 163.304 40.3797 164.19 59.08 164.19Z" fill="#8C6254"/>
<path d="M162.72 53.3038L24.9536 125.571C24.132 126.002 23.8153 127.018 24.2463 127.839L27.3912 133.835C27.8222 134.656 28.8377 134.973 29.6594 134.542L167.425 62.2745C168.247 61.8435 168.564 60.828 168.133 60.0064L164.988 54.0111C164.557 53.1895 163.541 52.8728 162.72 53.3038Z" fill="#DAD6BD"/>
<path d="M90.25 140.18C77.25 132.98 60.38 118.18 56.58 114.81C56.3473 114.603 56.057 114.472 55.7478 114.435C55.4387 114.397 55.1255 114.455 54.85 114.6L40.4 122.18C40.0644 122.352 39.8048 122.643 39.6717 122.996C39.5386 123.349 39.5416 123.739 39.68 124.09C43.25 132.78 44.68 154.94 45.16 162.73H63.7C77.43 157.46 87.42 146.49 90.7 142.52C90.8459 142.345 90.9511 142.139 91.0081 141.919C91.065 141.698 91.0722 141.467 91.0291 141.243C90.9861 141.02 90.8938 140.808 90.7591 140.624C90.6244 140.44 90.4505 140.289 90.25 140.18Z" fill="#969696"/>
<path d="M57.9311 107.15L33.9237 119.744C33.4689 119.983 33.2936 120.545 33.5322 121L38.2193 129.935C38.4579 130.39 39.02 130.565 39.4749 130.326L63.4823 117.733C63.9371 117.494 64.1124 116.932 63.8738 116.477L59.1867 107.542C58.9481 107.087 58.386 106.912 57.9311 107.15Z" fill="#CD2B35"/>
<path d="M46.07 162.33L76.26 132.5C72.69 129.89 69.26 127.16 66.26 124.69L44.85 145.84C45.54 152.85 45.92 159.43 46.07 162.33Z" fill="#B5B5B5"/>
<path d="M1.89539e-05 212.14C-0.0115745 243.849 5.29537 275.336 15.7 305.29C67.02 453.4 228.7 531.86 376.78 480.54C494.21 439.86 567.84 329.8 567.78 212.14H1.89539e-05Z" fill="#F77F00"/>
<path d="M302.94 295.26C299.53 296.26 295.28 296.04 292.77 298.06C287.15 302.56 288.13 292.91 283.82 294.59C279.82 297.22 270.02 291.68 270.62 299.15C268.54 302.74 253.72 281.37 245.73 279.15C235.53 273.74 225.51 281.15 215.16 279.15C205.62 275.62 190.72 261.02 183.39 275.27C173.09 276.57 153.78 267.66 157.93 286.61C152.02 264.11 144.49 283.25 138.93 299.22C152.24 312.12 138.39 335.22 151.56 346.22C150.62 354.14 153.66 361.94 161.03 363.66C194.35 391.63 222.14 383.98 242.78 426.43C258.71 452.67 303.15 496.55 327.68 481.93C313.49 481.49 303.59 468.66 297.19 458.13C285.66 445.55 316.99 439.3 294.67 428.83C318.72 429.08 302.51 393.14 313.8 381.41C338.8 371.27 326.52 348.11 327.62 329.2C345.19 304.37 327.06 288.74 302.94 295.26ZM257.35 298.65C257.59 296.84 258.51 297.5 259.27 298.77C258.75 300.43 257.9 300.1 257.35 298.65Z" fill="#FCBF49"/>
<path d="M92.66 244.94C93.66 247.05 98.29 246.52 99.37 244.94C105.89 237.32 116.37 251.21 125.07 243.6C134.97 239.32 89.35 232.31 92.66 244.94Z" fill="#FCBF49"/>
<path d="M165.61 240.04C172.76 233.18 139.77 240.82 137.32 243.53C139.61 261.91 156.81 238.7 165.61 240.04Z" fill="#FCBF49"/>
<path d="M439.92 212.61C440.856 212.514 441.784 212.357 442.7 212.14H406.46C410.4 214.45 414.91 216.98 420.09 219.76C429.04 226.68 430.73 210.21 439.92 212.61Z" fill="#FCBF49"/>
<path d="M543.35 319.43C550.45 305.75 561.73 275.72 559.51 265.5C552.59 281.88 543.73 303.37 543.35 319.43Z" fill="#FCBF49"/>
<path d="M484.85 226.53C488.74 239.68 501.24 249.64 498.97 265.3C498.42 287.3 481.97 398.68 512.33 349.68C540.54 310.09 556.39 261.03 559.14 212.14H485.55C485.84 216.74 484.69 222.68 484.85 226.53Z" fill="#FCBF49"/>
<path d="M20.91 257.16C33.27 275.71 28.21 257.43 21.09 248.34C3.23001 208.56 35.75 269.18 46.45 281.55C58.58 291.78 72.04 282.78 82.56 289.28C89.47 292.98 98.38 289.88 104.17 296.34C109.04 302.72 128.23 312.61 132.22 301.88C134.03 299.26 142.75 299.55 135.4 295.81C108.98 311.64 115.89 270.75 97.4 275.04C84.59 282.26 90.34 259.77 87.4 252.68C72.59 251.14 81.83 284.88 64.76 270.74C55.84 258.48 43.84 225.74 62.65 219.33C67.13 219.7 72.4 221.21 71.13 213.33C71.62 212.91 72.13 212.52 72.56 212.16H5.61002C8.30949 227.872 13.4731 243.059 20.91 257.16Z" fill="#FCBF49"/>
<path d="M119.61 255.3C120.61 257.84 124.49 257.07 126.4 255.95C125.57 253.1 120.23 252.43 119.61 255.3Z" fill="#FCBF49"/>
<path d="M104.43 227.31C101.322 222.668 99.0068 217.541 97.58 212.14H88.91C93.69 216.43 97.98 223.61 104.43 227.31Z" fill="#FCBF49"/>
<g style="mix-blend-mode:multiply" opacity="0.64">
<path d="M372.93 424.3C230.93 473.49 76 398.3 26.81 256.3C23.6229 247.117 20.929 237.77 18.74 228.3C19.4367 255.628 24.3652 282.682 33.35 308.5C81.35 446.88 232.35 520.19 370.72 472.24C478.17 435.01 546.36 335.61 549.04 228.24C538.722 273.173 517.144 314.744 486.336 349.042C455.528 383.339 416.503 409.237 372.93 424.3Z" fill="#A4B3DE"/>
</g>
<path d="M178.69 142H139.13V212.34H178.69V142Z" fill="#D85A69"/>
<path d="M149.87 142H139.13V212.34H149.87V142Z" fill="#E48B92"/>
<path d="M178.84 142H168.1V212.34H178.84V142Z" fill="#C42E40"/>
<path d="M181.19 142H137V146.14H181.19V142Z" fill="#831926"/>
<path d="M181.19 142H137V142.89H181.19V142Z" fill="#AB6773"/>
<path d="M181.19 163.08H137V167.22H181.19V163.08Z" fill="#831926"/>
<path d="M181.19 163.08H137V163.97H181.19V163.08Z" fill="#AB6773"/>
</svg>
