<svg width="152" height="152" viewBox="0 0 152 152" fill="none" xmlns="http://www.w3.org/2000/svg">
<circle cx="76" cy="76" r="76" fill="#E9B9B9"/>
<path fill-rule="evenodd" clip-rule="evenodd" d="M63.8 65.7501C61.6461 65.7501 59.9 67.4962 59.9 69.6501V85.2501C59.9 87.404 61.6461 89.1501 63.8 89.1501H87.2C89.3539 89.1501 91.1 87.404 91.1 85.2501V69.6501C91.1 67.4962 89.3539 65.7501 87.2 65.7501H84.1077C83.5906 65.7501 83.0946 65.5447 82.7289 65.179L80.5423 62.9924C79.8109 62.261 78.8189 61.8501 77.7846 61.8501H73.2155C72.1811 61.8501 71.1891 62.261 70.4577 62.9924L68.2712 65.179C67.9055 65.5447 67.4095 65.7501 66.8923 65.7501H63.8ZM75.5 83.3001C78.7309 83.3001 81.35 80.681 81.35 77.4501C81.35 74.2192 78.7309 71.6001 75.5 71.6001C72.2692 71.6001 69.65 74.2192 69.65 77.4501C69.65 80.681 72.2692 83.3001 75.5 83.3001Z" fill="#D62828"/>
</svg>
