<svg width="36" height="36" viewBox="0 0 36 36" fill="none" xmlns="http://www.w3.org/2000/svg">
<g id="Icon/Solid/lock-closed">
<path id="Icon" fill-rule="evenodd" clip-rule="evenodd" d="M9 16.2V12.6C9 7.62944 13.0294 3.60001 18 3.60001C22.9706 3.60001 27 7.62944 27 12.6V16.2C28.9882 16.2 30.6 17.8118 30.6 19.8V28.8C30.6 30.7882 28.9882 32.4 27 32.4H9C7.01177 32.4 5.4 30.7882 5.4 28.8V19.8C5.4 17.8118 7.01177 16.2 9 16.2ZM23.4 12.6V16.2H12.6V12.6C12.6 9.61767 15.0177 7.20001 18 7.20001C20.9823 7.20001 23.4 9.61767 23.4 12.6Z" fill="#F68002"/>
</g>
</svg>
