<svg width="1228" height="196" viewBox="0 0 1228 196" fill="none" xmlns="http://www.w3.org/2000/svg">
<path d="M0.107422 184.956V10.4918C0.107422 7.13144 2.82628 4.4126 6.18665 4.4126H130.367C134.033 4.4126 136.996 7.39111 136.996 11.0417V36.0306C136.996 39.6964 134.018 42.6597 130.367 42.6597H49.0924C45.4265 42.6597 42.4633 45.6382 42.4633 49.2888V71.2686C42.4633 74.9345 45.4418 77.8977 49.0924 77.8977H123.25C126.915 77.8977 129.879 80.8762 129.879 84.5268V108.416C129.879 112.082 126.9 115.045 123.25 115.045H49.0924C45.4265 115.045 42.4633 118.024 42.4633 121.674V146.663C42.4633 150.329 45.4418 153.292 49.0924 153.292H130.642C134.308 153.292 137.271 156.271 137.271 159.921V184.91C137.271 188.576 134.293 191.539 130.642 191.539H6.75179C3.08594 191.539 0.122711 188.561 0.122711 184.91L0.107422 184.956Z" fill="white"/>
<path d="M237.013 39.9419C221.173 39.9419 207.915 45.5018 197.254 56.6063C186.592 67.7261 181.261 81.3813 181.261 97.5875C181.261 113.794 186.684 128.014 197.513 139.119C208.343 150.238 221.968 155.783 238.357 155.783C258.641 155.783 274.603 147.367 286.227 130.519C288.121 127.785 291.894 127.159 294.628 129.053L317.677 145.06C320.396 146.954 321.129 150.697 319.266 153.431C300.279 181.413 273.488 195.405 238.892 195.405C210.115 195.405 186.103 185.98 166.888 167.132C147.673 148.283 138.065 125.097 138.065 97.5875C138.065 70.0783 147.627 47.2736 166.751 28.5931C185.874 9.92775 209.55 0.579834 237.792 0.579834C273.946 0.579834 300.906 14.4948 318.67 42.3247C320.411 45.0588 319.647 48.7094 316.974 50.5576L293.177 67.0081C290.473 68.8716 286.716 68.2912 284.822 65.5876C272.755 48.4803 256.809 39.9267 236.967 39.9267L237.013 39.9419Z" fill="white"/>
<path d="M587.85 57.4936V65.3599C598.42 54.4234 611.342 48.9705 626.647 48.9705C641.952 48.9705 653.622 53.7972 662.863 63.4506C665.108 65.7876 668.774 66.0014 671.218 63.8783C682.628 53.9346 696.466 48.9705 712.718 48.9705C728.97 48.9705 743.007 54.0721 752.752 64.2754C762.497 74.4787 767.37 87.9507 767.37 104.722V185.539C767.37 188.899 764.651 191.618 761.291 191.618H735.721C732.361 191.618 729.642 188.899 729.642 185.539V111C729.642 102.797 727.55 96.2447 723.364 91.3263C719.164 86.408 713.436 83.9488 706.15 83.9488C697.581 83.9488 690.708 86.6829 685.514 92.1511C680.321 97.6194 677.725 104.997 677.725 114.284V185.539C677.725 188.899 675.006 191.618 671.645 191.618H646.351C642.991 191.618 640.272 188.899 640.272 185.539V111C640.272 102.797 638.179 96.2447 633.994 91.3263C629.809 86.408 624.066 83.9488 616.78 83.9488C608.211 83.9488 601.337 86.6829 596.144 92.1511C590.951 97.6194 588.354 104.997 588.354 114.284V185.539C588.354 188.899 585.635 191.618 582.275 191.618H556.446C553.086 191.618 550.367 188.899 550.367 185.539V57.5088C550.367 54.1485 553.086 51.4296 556.446 51.4296H581.74C585.101 51.4296 587.82 54.1485 587.82 57.5088L587.85 57.4936Z" fill="white"/>
<path d="M906.613 158.105C909.713 160.014 910.446 164.199 908.186 167.056C893.538 185.599 872.749 194.87 845.79 194.87C823.749 194.87 805.939 187.997 792.375 174.235C778.797 160.488 772.015 143.044 772.015 121.904C772.015 100.765 778.934 83.9782 792.788 69.8494C806.626 55.7358 824.391 48.6791 846.065 48.6791C867.739 48.6791 884.999 55.3693 897.845 68.7649C910.691 82.1605 917.106 99.2373 917.106 119.995C917.106 121.63 917.06 123.508 916.969 125.601C916.877 127.693 916.785 129.481 916.694 130.932C916.602 132.322 915.456 133.391 914.066 133.391H809.437C811.438 142.494 815.715 149.643 822.283 154.836C828.835 160.029 836.946 162.626 846.6 162.626C860.805 162.626 872.169 157.753 880.646 148.024C882.586 145.809 885.855 145.335 888.36 146.878L906.597 158.105H906.613ZM845.79 79.8388C829.08 79.8388 817.838 87.1247 812.079 101.681C811.407 103.392 812.69 105.255 814.539 105.255H875.346C877.133 105.255 878.431 103.499 877.851 101.803C875.636 95.266 871.97 90.1338 866.823 86.3915C860.805 82.0231 853.794 79.8388 845.79 79.8388Z" fill="white"/>
<path d="M970.656 51.4145H999.005C1002.37 51.4145 1005.08 54.1333 1005.08 57.4937V79.2291C1005.08 82.5895 1002.37 85.3084 999.005 85.3084H970.656V141.594C970.656 147.796 972.107 152.256 975.024 154.99C977.942 157.724 982.677 159.084 989.23 159.084H999.005C1002.37 159.084 1005.08 161.803 1005.08 165.163V185.539C1005.08 188.899 1002.37 191.618 999.005 191.618H986.496C950.601 191.618 932.669 175.595 932.669 143.534V85.3389H918.524C915.164 85.3389 912.445 82.6201 912.445 79.2597V57.5243C912.445 54.1639 915.164 51.445 918.524 51.445H932.669V21.4461C932.669 18.0858 935.387 15.3669 938.748 15.3669H964.592C967.952 15.3669 970.671 18.0858 970.671 21.4461V51.445L970.656 51.4145Z" fill="white"/>
<path d="M1133.68 158.105C1136.78 160.014 1137.51 164.199 1135.25 167.056C1120.6 185.599 1099.82 194.87 1072.86 194.87C1050.82 194.87 1033.01 187.997 1019.44 174.235C1005.86 160.488 999.081 143.044 999.081 121.904C999.081 100.765 1006 83.9782 1019.85 69.8494C1033.69 55.7358 1051.46 48.6791 1073.13 48.6791C1094.81 48.6791 1112.07 55.3693 1124.91 68.7649C1137.76 82.1605 1144.17 99.2373 1144.17 119.995C1144.17 121.63 1144.13 123.508 1144.04 125.601C1143.94 127.693 1143.85 129.481 1143.76 130.932C1143.67 132.322 1142.52 133.391 1141.13 133.391H1039.85C1038.14 133.391 1036.87 135.04 1037.36 136.69C1039.6 144.251 1043.61 150.284 1049.35 154.836C1055.9 160.029 1064.01 162.626 1073.67 162.626C1087.87 162.626 1099.24 157.753 1107.71 148.024C1109.65 145.809 1112.92 145.335 1115.43 146.878L1133.66 158.105H1133.68ZM1072.86 79.8388C1056.12 79.8388 1044.87 87.14 1039.12 101.742C1038.46 103.422 1039.73 105.255 1041.53 105.255H1102.46C1104.21 105.255 1105.48 103.529 1104.92 101.864C1102.7 95.2965 1099.02 90.1491 1093.87 86.4068C1087.86 82.0383 1080.84 79.8541 1072.84 79.8541L1072.86 79.8388Z" fill="white"/>
<path d="M1181.28 191.587H1154.45C1151.49 191.587 1149.09 189.189 1149.09 186.225V56.7748C1149.09 53.8116 1151.49 51.4135 1154.45 51.4135H1181.7C1184.67 51.4135 1187.06 53.8116 1187.06 56.7748C1187.06 61.3419 1192.43 63.8469 1195.88 60.8684C1203.25 54.5295 1211.9 50.8331 1221.81 49.8097C1224.99 49.4737 1227.77 51.9634 1227.77 55.1558V82.5733C1227.77 85.3532 1225.65 87.736 1222.87 87.9193C1211.81 88.683 1203.33 92.1351 1197.44 98.2754C1190.7 105.286 1187.32 115.077 1187.32 127.648V185.507C1187.32 188.868 1184.6 191.587 1181.24 191.587H1181.28Z" fill="white"/>
<path d="M536.131 191.586H488.582C487.451 191.586 486.535 190.67 486.535 189.54V179.077C486.535 178.45 486.825 177.87 487.299 177.473L512.563 157.265C516.183 154.5 518.764 152.056 520.322 149.933C521.88 147.81 522.659 145.152 522.659 141.96C522.659 138.768 521.666 136.507 519.68 134.735C517.695 132.963 515.037 132.077 511.707 132.077C508.377 132.077 505.353 132.872 503.047 134.475C501.168 135.774 499.427 137.546 497.853 139.776C497.242 140.631 496.051 140.86 495.15 140.31L486 134.766C484.977 134.155 484.717 132.795 485.389 131.818C491.82 122.424 500.664 117.735 511.921 117.735C519.848 117.735 526.187 119.95 530.938 124.379C535.688 128.809 538.056 134.384 538.056 141.12C538.056 146.71 536.757 151.537 534.176 155.569C531.595 159.602 527.318 163.924 521.376 168.537L508.836 178.099H536.116C537.246 178.099 538.162 179.016 538.162 180.146V189.54C538.162 190.67 537.246 191.586 536.116 191.586H536.131Z" fill="white"/>
<path d="M508.715 137.728C507.707 137.972 506.821 138.339 506.088 138.843C504.728 139.79 503.415 141.134 502.208 142.845C500.008 145.961 495.701 146.847 492.417 144.861L483.268 139.316C481.542 138.278 480.32 136.552 479.892 134.581C479.464 132.596 479.892 130.503 481.022 128.823C488.476 117.947 498.878 112.433 511.938 112.433C513.19 112.433 514.397 112.495 515.588 112.586C516.215 107.836 516.535 102.933 516.535 97.8769C516.535 70.1845 507.019 47.0591 487.987 28.4701C468.956 9.89646 445.403 0.59436 417.359 0.59436C389.315 0.59436 366.449 9.92702 347.142 28.6076C327.836 47.2882 318.182 70.4594 318.182 98.1519C318.182 125.844 327.836 148.741 347.142 167.421C366.449 186.102 389.865 195.434 417.359 195.434C444.853 195.434 468.956 186.148 487.987 167.559C497.076 158.684 503.98 148.741 508.73 137.743L508.715 137.728ZM457.24 139.393C446.487 150.512 433.198 156.057 417.343 156.057C401.489 156.057 388.2 150.497 377.447 139.393C366.694 128.288 361.332 114.526 361.332 98.1366C361.332 81.7472 366.709 67.9391 377.447 56.743C388.2 45.5469 401.489 39.9412 417.343 39.9412C433.198 39.9412 446.487 45.5469 457.24 56.743C467.993 67.9391 473.355 81.6556 473.355 97.8617C473.355 114.068 467.978 128.288 457.24 139.393Z" fill="white"/>
</svg>
