<svg width="388" height="388" viewBox="0 0 388 388" fill="none" xmlns="http://www.w3.org/2000/svg">
<path d="M194 0C86.8502 0 0 86.8502 0 194C0 301.15 86.8502 388 194 388C301.15 388 388 301.135 388 194C388 86.8655 301.15 0 194 0ZM355.053 131.482L194.642 234.63C191.984 236.341 188.898 237.227 185.798 237.227C184.331 237.227 182.85 237.028 181.414 236.631C176.923 235.378 173.181 232.262 171.134 228.077L151.69 188.348C149.643 184.163 149.475 179.291 151.247 174.983C153.019 170.676 156.547 167.316 160.931 165.758L340.787 102.354C348.867 99.5126 357.13 102.888 360.903 110.587C364.661 118.285 362.263 126.884 355.068 131.512L355.053 131.482Z" fill="white"/>
<path d="M194.001 365.484C288.71 365.484 365.487 288.708 365.487 193.999C365.487 99.2901 288.71 22.5134 194.001 22.5134C99.2923 22.5134 22.5156 99.2901 22.5156 193.999C22.5156 288.708 99.2923 365.484 194.001 365.484Z" fill="#003049"/>
<path d="M194.001 235.774C217.073 235.774 235.776 217.071 235.776 193.999C235.776 170.927 217.073 152.223 194.001 152.223C170.929 152.223 152.226 170.927 152.226 193.999C152.226 217.071 170.929 235.774 194.001 235.774Z" fill="white"/>
<path d="M342.94 108.43L219.629 151.901C233.819 160.546 243.274 176.172 243.274 193.997C243.274 194.562 243.244 195.128 243.228 195.677L351.554 126.026C361.406 119.687 353.983 104.52 342.94 108.415V108.43Z" fill="white"/>
<path d="M190.992 377.096C217.066 377.096 241.856 371.628 264.294 361.776C253.724 337.596 229.621 320.703 201.562 320.703C195.162 320.703 188.961 321.589 183.08 323.223C175.382 308.056 161.941 296.31 145.612 290.842C151.478 281.31 154.869 270.084 154.869 258.078C154.869 223.482 126.825 195.453 92.2436 195.453C77.2289 195.453 63.4514 200.738 52.6524 209.551C40.9675 197.408 25.6778 188.748 8.50939 185.28C8.35665 188.305 8.28027 191.344 8.28027 194.399C8.28027 295.302 90.0746 377.111 190.992 377.111V377.096Z" fill="white"/>
</svg>
