<svg width="15" height="15" viewBox="0 0 15 15" fill="none" xmlns="http://www.w3.org/2000/svg">
<path d="M15 7.5C15 11.6431 11.6418 15 7.5 15C3.35816 15 0 11.6431 0 7.5C0 3.35936 3.35816 0 7.5 0C11.6418 0 15 3.35936 15 7.5ZM7.70126 2.47984C6.05316 2.47984 5.00202 3.1741 4.17659 4.408C4.06966 4.56786 4.10543 4.78346 4.2587 4.89968L5.30806 5.69534C5.46547 5.81471 5.68975 5.78631 5.81205 5.63117C6.35229 4.94595 6.72272 4.5486 7.545 4.5486C8.16281 4.5486 8.927 4.94622 8.927 5.54531C8.927 5.99822 8.55311 6.23081 7.9431 6.57281C7.23169 6.97161 6.29032 7.46797 6.29032 8.70968V8.83064C6.29032 9.03106 6.45281 9.19355 6.65323 9.19355H8.34677C8.54719 9.19355 8.70968 9.03106 8.70968 8.83064V8.79033C8.70968 7.92959 11.2254 7.89375 11.2254 5.56452C11.2254 3.81042 9.40588 2.47984 7.70126 2.47984ZM7.5 9.97984C6.73291 9.97984 6.10887 10.6039 6.10887 11.371C6.10887 12.138 6.73291 12.7621 7.5 12.7621C8.26709 12.7621 8.89113 12.138 8.89113 11.371C8.89113 10.6039 8.26709 9.97984 7.5 9.97984Z" fill="white"/>
</svg>
