<svg width="27" height="27" viewBox="0 0 27 27" fill="none" xmlns="http://www.w3.org/2000/svg">
<path fill-rule="evenodd" clip-rule="evenodd" d="M24.4353 11.5402L26.027 10.6324C26.476 10.3759 26.7979 9.96101 26.9327 9.46361C27.0672 8.9659 26.9992 8.44719 26.7396 8.00379L25.2752 5.49756C25.0159 5.05386 24.5959 4.73555 24.0922 4.60235C23.5894 4.46945 23.0638 4.53665 22.6147 4.79315L21.0228 5.70096C20.8063 5.82486 20.4174 5.79456 20.2227 5.63826C20.2048 5.62386 19.7843 5.28786 19.1764 4.94105C18.5778 4.59853 18.068 4.4043 18.0432 4.39485L18.043 4.39475C17.8089 4.30595 17.5875 3.98824 17.5875 3.73984V1.92482C17.5872 0.86311 16.7134 0 15.6394 0H12.7106C11.6367 0 10.7628 0.86311 10.7628 1.92452V3.74014C10.7628 3.98764 10.5415 4.30595 10.3074 4.39475C10.2861 4.40285 9.7748 4.59785 9.17391 4.94105C8.56604 5.28786 8.14551 5.62386 8.1282 5.63796C7.93388 5.79426 7.54523 5.82486 7.32783 5.70096L5.73529 4.79255C5.28622 4.53635 4.76185 4.46915 4.25782 4.60205C3.7544 4.73525 3.33417 5.05356 3.07487 5.49696L1.61046 8.00319C1.35116 8.44689 1.28284 8.9656 1.41765 9.46271C1.55246 9.96071 1.87431 10.3756 2.32308 10.6318L3.91502 11.5399C4.13181 11.6635 4.29972 12.0115 4.25964 12.2557C4.256 12.2773 4.17311 12.7948 4.17311 13.5002C4.17311 14.2055 4.256 14.7224 4.25964 14.744C4.29942 14.9879 4.13151 15.3362 3.91502 15.4598L2.32308 16.3676C1.87401 16.6238 1.55246 17.039 1.41765 17.537C1.28284 18.0341 1.35116 18.5534 1.61046 18.9968L3.07487 21.503C3.6123 22.4216 4.80526 22.7373 5.73589 22.2074L7.32753 21.2996C7.54432 21.1754 7.93327 21.2063 8.12729 21.3623C8.14521 21.3767 8.56604 21.713 9.17391 22.0601C9.7751 22.4039 10.2864 22.5987 10.3077 22.6065C10.5418 22.6953 10.7631 23.0133 10.7631 23.2611V25.0755C10.7631 26.1363 11.637 27 12.7109 27H15.6397C16.7137 27 17.5875 26.1363 17.5875 25.0755V23.2611C17.5875 23.0136 17.8089 22.6953 18.043 22.6065C18.0642 22.5987 18.5762 22.4037 19.177 22.0601C19.7852 21.713 20.2063 21.3767 20.2237 21.3623C20.418 21.2063 20.8075 21.176 21.024 21.2996L22.6147 22.2068C23.0638 22.4634 23.5891 22.5309 24.0922 22.398C24.5959 22.2647 25.0162 21.9461 25.2752 21.5027L26.7396 18.9965C26.9989 18.5528 27.0672 18.0344 26.9327 17.5373C26.7979 17.0393 26.4757 16.6238 26.0267 16.3679L24.4356 15.4601C24.2188 15.3365 24.0509 14.9888 24.0907 14.7443C24.0947 14.7227 24.1772 14.2055 24.1772 13.5005C24.1772 12.7945 24.094 12.2776 24.0904 12.256C24.0506 12.0118 24.2185 11.6638 24.4353 11.5402ZM23.1367 12.4069L23.1376 12.413C23.1458 12.4698 23.2105 12.9145 23.2105 13.5005C23.2105 14.1212 23.1382 14.5831 23.1367 14.5926L23.1367 14.5928C23.0341 15.2237 23.3927 15.968 23.9525 16.2872L25.5439 17.1947C25.7695 17.3237 25.931 17.5328 25.9993 17.7845C26.0676 18.0353 26.033 18.2966 25.9031 18.5192L24.4387 21.0254C24.3081 21.2486 24.0968 21.4079 23.8423 21.4757C23.5885 21.5432 23.324 21.509 23.0981 21.3803L21.5077 20.4734C20.9484 20.1536 20.1165 20.219 19.6149 20.6213C19.6112 20.6249 19.2317 20.927 18.6943 21.2336C18.1623 21.5372 17.7014 21.7142 17.6971 21.7154C17.0941 21.944 16.6214 22.6233 16.6214 23.2614V25.0758C16.6214 25.6104 16.1814 26.0451 15.6403 26.0451H12.7115C12.1704 26.0451 11.7305 25.6104 11.7305 25.0758V23.2614C11.7305 22.6233 11.258 21.9437 10.6547 21.7151C10.6499 21.7133 10.1941 21.5399 9.6579 21.2336C9.12047 20.927 8.74093 20.6249 8.73759 20.6213C8.23569 20.219 7.40344 20.1533 6.84506 20.4734L5.7702 21.086C5.69655 21.1287 5.58792 21.1905 5.41912 21.2865L5.25373 21.3806C4.78431 21.6482 4.18343 21.4886 3.9132 21.0263L2.44878 18.5201C2.31853 18.2969 2.28422 18.0356 2.35253 17.7848C2.42055 17.5331 2.58238 17.324 2.80768 17.195L2.86261 17.1637L2.86303 17.1635C3.12411 17.015 3.25361 16.9413 3.32324 16.8992L4.3981 16.2872C4.95799 15.968 5.31597 15.2234 5.21365 14.5934L5.21344 14.5919C5.20906 14.5631 5.13987 14.1075 5.13987 13.5005C5.13987 12.8792 5.21225 12.4165 5.21363 12.4076L5.21365 12.4075C5.31658 11.7766 4.95829 11.0323 4.3981 10.7131L3.32081 10.0984L2.80616 9.80501C2.58086 9.67661 2.41903 9.46721 2.35101 9.2158C2.2827 8.9647 2.31731 8.7037 2.44727 8.48049L3.91168 5.97427C4.04194 5.75166 4.25326 5.59176 4.50801 5.52456C4.76185 5.45706 5.02631 5.49126 5.2516 5.61906L6.84415 6.52747C7.40435 6.84698 8.23539 6.78188 8.73668 6.37927C8.74063 6.37597 9.11956 6.07477 9.65729 5.76756C10.1886 5.46396 10.6493 5.28726 10.6532 5.28606C11.2562 5.05746 11.729 4.37885 11.729 3.74014V1.92452C11.729 1.38992 12.1689 0.954911 12.71 0.954911H15.6388C16.1799 0.954911 16.6199 1.38992 16.6199 1.92452V3.73954C16.6199 4.37825 17.0926 5.05746 17.6953 5.28576C17.7002 5.28756 18.1605 5.46396 18.6921 5.76726C19.2296 6.07417 19.6088 6.37567 19.6124 6.37897C20.1134 6.78158 20.946 6.84698 21.505 6.52747L23.0969 5.61996C23.3222 5.49096 23.5858 5.45706 23.8411 5.52486C24.0956 5.59206 24.3069 5.75166 24.4371 5.97427L25.9016 8.48049C26.0318 8.7037 26.0661 8.965 25.9978 9.2158C25.9295 9.46721 25.768 9.67661 25.5424 9.80501L23.9519 10.7131C23.392 11.0323 23.0338 11.7766 23.1367 12.4069ZM14.175 8.24799C11.2444 8.24799 8.85935 10.6045 8.85935 13.5007C8.85935 16.397 11.2444 18.7532 14.175 18.7532C17.1057 18.7532 19.4907 16.397 19.4907 13.5007C19.4907 10.6045 17.1057 8.24799 14.175 8.24799ZM14.175 17.798C11.7772 17.798 9.82641 15.8699 9.82641 13.5008C9.82641 11.1313 11.7772 9.2035 14.175 9.2035C16.5728 9.2035 18.5236 11.1313 18.5236 13.5008C18.5236 15.8699 16.5728 17.798 14.175 17.798Z" fill="#1F263E"/>
</svg>
