<svg width="30" height="30" viewBox="0 0 30 30" fill="none" xmlns="http://www.w3.org/2000/svg">
<path d="M7.5 4.5C5.84315 4.5 4.5 5.84315 4.5 7.5V10.5C4.5 12.1569 5.84315 13.5 7.5 13.5H10.5C12.1569 13.5 13.5 12.1569 13.5 10.5V7.5C13.5 5.84315 12.1569 4.5 10.5 4.5H7.5Z" fill="white"/>
<path d="M7.5 16.5C5.84315 16.5 4.5 17.8431 4.5 19.5V22.5C4.5 24.1569 5.84315 25.5 7.5 25.5H10.5C12.1569 25.5 13.5 24.1569 13.5 22.5V19.5C13.5 17.8431 12.1569 16.5 10.5 16.5H7.5Z" fill="white"/>
<path d="M16.5 7.5C16.5 5.84315 17.8431 4.5 19.5 4.5H22.5C24.1569 4.5 25.5 5.84315 25.5 7.5V10.5C25.5 12.1569 24.1569 13.5 22.5 13.5H19.5C17.8431 13.5 16.5 12.1569 16.5 10.5V7.5Z" fill="white"/>
<path d="M16.5 19.5C16.5 17.8431 17.8431 16.5 19.5 16.5H22.5C24.1569 16.5 25.5 17.8431 25.5 19.5V22.5C25.5 24.1569 24.1569 25.5 22.5 25.5H19.5C17.8431 25.5 16.5 24.1569 16.5 22.5V19.5Z" fill="white"/>
</svg>
